<svg width="70" height="42" viewBox="0 0 70 42" fill="none" xmlns="http://www.w3.org/2000/svg">
<path d="M35 0C25.655 0 19.845 4.655 17.5 14C21 9.345 25.095 7.595 29.75 8.75C32.41 9.415 34.335 11.34 36.435 13.475C39.865 16.975 43.75 21 52.5 21C61.845 21 67.655 16.345 70 7C66.5 11.655 62.405 13.405 57.75 12.25C55.09 11.585 53.2 9.66 51.065 7.525C47.635 4.025 43.75 0 35 0ZM17.5 21C8.155 21 2.345 25.655 0 35C3.5 30.345 7.595 28.595 12.25 29.75C14.91 30.415 16.8 32.34 18.935 34.475C22.365 37.975 26.25 42 35 42C44.345 42 50.155 37.345 52.5 28C49 32.655 44.905 34.405 40.25 33.25C37.59 32.585 35.7 30.66 33.565 28.525C30.135 25.025 26.25 21 17.5 21Z" fill="black"/>
</svg>
